<?xml version="1.0" encoding="UTF-8"?>
<svg width="890px" height="156px" viewBox="0 0 890 156" version="1.1" xmlns="http://www.w3.org/2000/svg" xmlns:xlink="http://www.w3.org/1999/xlink">
    <title>Group 8</title>
    <g id="Logos" stroke="none" stroke-width="1" fill="none" fill-rule="evenodd">
        <g id="Oviond-Main-Logo" fill="#0967D2" fill-rule="nonzero">
            <g id="Group-8">
                <polygon id="Fill-1" points="589 153 605 153 605 3 589 3"></polygon>
                <polyline id="Fill-2" points="294.455235 3 232 154.797598 232.084049 155 247.355195 155 313 3 294.455235 3"></polyline>
                <polygon id="Fill-3" points="344 153 362 153 362 3 344 3"></polygon>
                <path d="M76.184042,0 C32.5182254,0 2.59127952,32.8528645 0,72.0556928 L17.7212135,72.0556928 C20.4291219,40.5635349 44.3062147,15.7258494 76.6187493,15.7258494 C110.945781,15.7258494 135.410259,43.3041128 135.410259,77.5815668 L135.410259,78.0181002 C135.410259,112.267872 110.517435,140.278409 76.184042,140.278409 C43.614924,140.278409 20.0092582,115.430077 17.6618389,83.6227631 L0,83.6227631 C2.66549784,122.817074 32.9804995,156 76.6187493,156 C122.32663,156 153,120.019001 153,78.4312098 L153,78.0181002 C153,36.4196617 121.887682,0 76.184042,0 L76.6187493,2.97907424" id="Fill-4"></path>
                <polyline id="Fill-5" points="236 117.495747 187.292086 3 168 3 227.379763 138 236 117.495747"></polyline>
                <path d="M475.724446,0 C430.079382,0 399,36.4580628 399,78.1034044 L399,78.5340786 C399,118.345857 427.03666,152.998073 469.374325,155.970151 L469.374325,140.037338 C438.424105,136.803018 416.578759,110.239801 416.578759,78.1034044 L416.578759,77.6663341 C416.578759,43.3701704 441.007349,15.7494567 475.277672,15.7494567 C509.569169,15.7494567 534.421241,43.7901844 534.421241,78.1034044 L534.421241,78.5340786 C534.421241,111.067037 512.414971,137.504462 480.90152,140.143941 L480.90152,156 C523.453043,153.14092 552,118.006861 552,78.1034044 L552,77.6663341 C552,36.0316527 521.35257,0 475.724446,0" id="Fill-6"></path>
                <polyline id="Fill-7" points="698.485158 3 698.485158 123.20838 616 17.6988649 616 44.5659589 701.489591 153 715 153 715 3 698.485158 3"></polyline>
                <path d="M810.158622,3 L758,3 L758,153 L775.012212,153 L774.959188,18.643925 L810.158622,18.643925 C848.15348,18.643925 872.398162,44.7841867 872.398162,77.9989413 L872.398162,78.4245543 C872.398162,111.641426 848.15348,137.364545 810.158622,137.364545 L786.565075,137.364545 L786.565075,153 L810.158622,153 C857.379652,153 890,120.210858 890,77.9989413 L890,77.5690933 C890,35.365646 857.379652,3 810.158622,3" id="Fill-8"></path>
            </g>
        </g>
    </g>
</svg> 